<svg version="1.0" xmlns="http://www.w3.org/2000/svg" xmlns:xlink="http://www.w3.org/1999/xlink"
	 viewBox="0 0 100 100" enable-background="new 0 0 100 100" xml:space="preserve">
	
<svg xmlns="http://www.w3.org/2000/svg" xmlns:xlink="http://www.w3.org/1999/xlink" version="1.1" width="100" height="100" viewBox="0 0 2000 2000" x="0" y="0" shape-rendering="crispEdges"><defs/><rect x="0" y="0" width="2000" height="2000" fill="#ffffff"/><svg viewBox="0 0 4 4" x="712" y="200" width="64" height="64" shape-rendering="auto"><path fill="#000000" d="M2,4H4V2A2,2,0,0,1,2,4Z"/></svg><svg viewBox="0 0 4 4" x="776" y="200" width="64" height="64" shape-rendering="auto"><path fill="#000000" d="M4,4V2A2,2,0,0,0,0,2H0V4Z"/></svg><svg viewBox="0 0 4 4" x="1032" y="200" width="64" height="64" shape-rendering="auto"><path fill="#000000" d="M2,4H4V2A2,2,0,0,1,2,4Z"/></svg><svg viewBox="0 0 4 4" x="1096" y="200" width="64" height="64" shape-rendering="auto"><path fill="#000000" d="M4,4V2A2,2,0,0,0,0,2H0V4Z"/></svg><svg viewBox="0 0 4 4" x="1224" y="200" width="64" height="64" shape-rendering="auto"><path fill="#000000" d="M0,2A2,2,0,0,0,2,4H2A2,2,0,0,0,2,0H2A2,2,0,0,0,0,2Z"/></svg><svg viewBox="0 0 4 4" x="712" y="264" width="64" height="64" shape-rendering="auto"><path fill="#000000" d="M4,0H2A2,2,0,0,0,2,4H4Z"/></svg><svg viewBox="0 0 4 4" x="776" y="264" width="64" height="64" shape-rendering="auto"><rect fill="#000000" width="4" height="4"/></svg><svg viewBox="0 0 4 4" x="840" y="264" width="64" height="64" shape-rendering="auto"><path fill="#000000" d="M2,4H4V2A2,2,0,0,1,2,4Z"/></svg><svg viewBox="0 0 4 4" x="840" y="264" width="64" height="64" shape-rendering="auto"><path fill="#000000" d="M0,2V4H2A2,2,0,0,1,0,2Z"/></svg><svg viewBox="0 0 4 4" x="904" y="264" width="64" height="64" shape-rendering="auto"><path fill="#000000" d="M0,2V4H4V0H2A2,2,0,0,0,0,2Z"/></svg><svg viewBox="0 0 4 4" x="968" y="264" width="64" height="64" shape-rendering="auto"><rect fill="#000000" width="4" height="4"/></svg><svg viewBox="0 0 4 4" x="1032" y="264" width="64" height="64" shape-rendering="auto"><rect fill="#000000" width="4" height="4"/></svg><svg viewBox="0 0 4 4" x="1096" y="264" width="64" height="64" shape-rendering="auto"><path fill="#000000" d="M2,4H0V0H4V2A2,2,0,0,1,2,4Z"/></svg><svg viewBox="0 0 4 4" x="712" y="328" width="64" height="64" shape-rendering="auto"><path fill="#000000" d="M4,2V0H2A2,2,0,0,1,4,2Z"/></svg><svg viewBox="0 0 4 4" x="712" y="328" width="64" height="64" shape-rendering="auto"><path fill="#000000" d="M2,4H4V2A2,2,0,0,1,2,4Z"/></svg><svg viewBox="0 0 4 4" x="776" y="328" width="64" height="64" shape-rendering="auto"><rect fill="#000000" width="4" height="4"/></svg><svg viewBox="0 0 4 4" x="840" y="328" width="64" height="64" shape-rendering="auto"><rect fill="#000000" width="4" height="4"/></svg><svg viewBox="0 0 4 4" x="904" y="328" width="64" height="64" shape-rendering="auto"><rect fill="#000000" width="4" height="4"/></svg><svg viewBox="0 0 4 4" x="968" y="328" width="64" height="64" shape-rendering="auto"><path fill="#000000" d="M0,2V0H2A2,2,0,0,0,0,2Z"/></svg><svg viewBox="0 0 4 4" x="712" y="392" width="64" height="64" shape-rendering="auto"><path fill="#000000" d="M4,0H2A2,2,0,0,0,2,4H4Z"/></svg><svg viewBox="0 0 4 4" x="776" y="392" width="64" height="64" shape-rendering="auto"><path fill="#000000" d="M2,4H0V0H4V2A2,2,0,0,1,2,4Z"/></svg><svg viewBox="0 0 4 4" x="840" y="392" width="64" height="64" shape-rendering="auto"><path fill="#000000" d="M0,2V0H2A2,2,0,0,0,0,2Z"/></svg><svg viewBox="0 0 4 4" x="840" y="392" width="64" height="64" shape-rendering="auto"><path fill="#000000" d="M4,2V0H2A2,2,0,0,1,4,2Z"/></svg><svg viewBox="0 0 4 4" x="904" y="392" width="64" height="64" shape-rendering="auto"><path fill="#000000" d="M0,0V2A2,2,0,0,0,4,2H4V0Z"/></svg><svg viewBox="0 0 4 4" x="1032" y="392" width="64" height="64" shape-rendering="auto"><path fill="#000000" d="M0,2A2,2,0,0,0,2,4H2A2,2,0,0,0,2,0H2A2,2,0,0,0,0,2Z"/></svg><svg viewBox="0 0 4 4" x="1160" y="392" width="64" height="64" shape-rendering="auto"><path fill="#000000" d="M0,2V4H4V0H2A2,2,0,0,0,0,2Z"/></svg><svg viewBox="0 0 4 4" x="1224" y="392" width="64" height="64" shape-rendering="auto"><path fill="#000000" d="M4,2V4H0V0H2A2,2,0,0,1,4,2Z"/></svg><svg viewBox="0 0 4 4" x="840" y="456" width="64" height="64" shape-rendering="auto"><path fill="#000000" d="M4,4V2A2,2,0,0,0,0,2H0V4Z"/></svg><svg viewBox="0 0 4 4" x="968" y="456" width="64" height="64" shape-rendering="auto"><path fill="#000000" d="M0,2A2,2,0,0,0,2,4H2A2,2,0,0,0,2,0H2A2,2,0,0,0,0,2Z"/></svg><svg viewBox="0 0 4 4" x="1096" y="456" width="64" height="64" shape-rendering="auto"><path fill="#000000" d="M2,4H4V2A2,2,0,0,1,2,4Z"/></svg><svg viewBox="0 0 4 4" x="1160" y="456" width="64" height="64" shape-rendering="auto"><rect fill="#000000" width="4" height="4"/></svg><svg viewBox="0 0 4 4" x="1224" y="456" width="64" height="64" shape-rendering="auto"><path fill="#000000" d="M2,4H0V0H4V2A2,2,0,0,1,2,4Z"/></svg><svg viewBox="0 0 4 4" x="712" y="520" width="64" height="64" shape-rendering="auto"><path fill="#000000" d="M4,4V2A2,2,0,0,0,0,2H0V4Z"/></svg><svg viewBox="0 0 4 4" x="840" y="520" width="64" height="64" shape-rendering="auto"><rect fill="#000000" width="4" height="4"/></svg><svg viewBox="0 0 4 4" x="1032" y="520" width="64" height="64" shape-rendering="auto"><path fill="#000000" d="M4,0H2A2,2,0,0,0,2,4H4Z"/></svg><svg viewBox="0 0 4 4" x="1096" y="520" width="64" height="64" shape-rendering="auto"><rect fill="#000000" width="4" height="4"/></svg><svg viewBox="0 0 4 4" x="1160" y="520" width="64" height="64" shape-rendering="auto"><path fill="#000000" d="M2,4H0V0H4V2A2,2,0,0,1,2,4Z"/></svg><svg viewBox="0 0 4 4" x="1224" y="520" width="64" height="64" shape-rendering="auto"><path fill="#000000" d="M0,2V0H2A2,2,0,0,0,0,2Z"/></svg><svg viewBox="0 0 4 4" x="712" y="584" width="64" height="64" shape-rendering="auto"><path fill="#000000" d="M0,0V2A2,2,0,0,0,4,2H4V0Z"/></svg><svg viewBox="0 0 4 4" x="840" y="584" width="64" height="64" shape-rendering="auto"><path fill="#000000" d="M0,0V2A2,2,0,0,0,4,2H4V0Z"/></svg><svg viewBox="0 0 4 4" x="968" y="584" width="64" height="64" shape-rendering="auto"><path fill="#000000" d="M4,4V2A2,2,0,0,0,0,2H0V4Z"/></svg><svg viewBox="0 0 4 4" x="1032" y="584" width="64" height="64" shape-rendering="auto"><path fill="#000000" d="M4,2V0H2A2,2,0,0,1,4,2Z"/></svg><svg viewBox="0 0 4 4" x="1096" y="584" width="64" height="64" shape-rendering="auto"><path fill="#000000" d="M0,0V2A2,2,0,0,0,4,2H4V0Z"/></svg><svg viewBox="0 0 4 4" x="1160" y="584" width="64" height="64" shape-rendering="auto"><path fill="#000000" d="M0,2V0H2A2,2,0,0,0,0,2Z"/></svg><svg viewBox="0 0 4 4" x="1224" y="584" width="64" height="64" shape-rendering="auto"><path fill="#000000" d="M4,4V2A2,2,0,0,0,0,2H0V4Z"/></svg><svg viewBox="0 0 4 4" x="968" y="648" width="64" height="64" shape-rendering="auto"><rect fill="#000000" width="4" height="4"/></svg><svg viewBox="0 0 4 4" x="1032" y="648" width="64" height="64" shape-rendering="auto"><path fill="#000000" d="M0,2V4H2A2,2,0,0,1,0,2Z"/></svg><svg viewBox="0 0 4 4" x="1224" y="648" width="64" height="64" shape-rendering="auto"><path fill="#000000" d="M0,0V2A2,2,0,0,0,4,2H4V0Z"/></svg><svg viewBox="0 0 4 4" x="200" y="712" width="64" height="64" shape-rendering="auto"><path fill="#000000" d="M4,0H2A2,2,0,0,0,2,4H4Z"/></svg><svg viewBox="0 0 4 4" x="264" y="712" width="64" height="64" shape-rendering="auto"><rect fill="#000000" width="4" height="4"/></svg><svg viewBox="0 0 4 4" x="328" y="712" width="64" height="64" shape-rendering="auto"><rect fill="#000000" width="4" height="4"/></svg><svg viewBox="0 0 4 4" x="392" y="712" width="64" height="64" shape-rendering="auto"><rect fill="#000000" width="4" height="4"/></svg><svg viewBox="0 0 4 4" x="456" y="712" width="64" height="64" shape-rendering="auto"><path fill="#000000" d="M0,4H2A2,2,0,0,0,2,0H0Z"/></svg><svg viewBox="0 0 4 4" x="584" y="712" width="64" height="64" shape-rendering="auto"><path fill="#000000" d="M4,0H2A2,2,0,0,0,2,4H4Z"/></svg><svg viewBox="0 0 4 4" x="648" y="712" width="64" height="64" shape-rendering="auto"><rect fill="#000000" width="4" height="4"/></svg><svg viewBox="0 0 4 4" x="712" y="712" width="64" height="64" shape-rendering="auto"><rect fill="#000000" width="4" height="4"/></svg><svg viewBox="0 0 4 4" x="776" y="712" width="64" height="64" shape-rendering="auto"><rect fill="#000000" width="4" height="4"/></svg><svg viewBox="0 0 4 4" x="840" y="712" width="64" height="64" shape-rendering="auto"><path fill="#000000" d="M0,4H2A2,2,0,0,0,2,0H0Z"/></svg><svg viewBox="0 0 4 4" x="968" y="712" width="64" height="64" shape-rendering="auto"><path fill="#000000" d="M2,4H4V0H0V2A2,2,0,0,0,2,4Z"/></svg><svg viewBox="0 0 4 4" x="1032" y="712" width="64" height="64" shape-rendering="auto"><rect fill="#000000" width="4" height="4"/></svg><svg viewBox="0 0 4 4" x="1096" y="712" width="64" height="64" shape-rendering="auto"><rect fill="#000000" width="4" height="4"/></svg><svg viewBox="0 0 4 4" x="1160" y="712" width="64" height="64" shape-rendering="auto"><path fill="#000000" d="M4,2V4H0V0H2A2,2,0,0,1,4,2Z"/></svg><svg viewBox="0 0 4 4" x="1224" y="712" width="64" height="64" shape-rendering="auto"><path fill="#000000" d="M2,4H4V2A2,2,0,0,1,2,4Z"/></svg><svg viewBox="0 0 4 4" x="1224" y="712" width="64" height="64" shape-rendering="auto"><path fill="#000000" d="M0,2V4H2A2,2,0,0,1,0,2Z"/></svg><svg viewBox="0 0 4 4" x="1288" y="712" width="64" height="64" shape-rendering="auto"><path fill="#000000" d="M4,4V2A2,2,0,0,0,0,2H0V4Z"/></svg><svg viewBox="0 0 4 4" x="1416" y="712" width="64" height="64" shape-rendering="auto"><path fill="#000000" d="M4,4V2A2,2,0,0,0,0,2H0V4Z"/></svg><svg viewBox="0 0 4 4" x="1480" y="712" width="64" height="64" shape-rendering="auto"><path fill="#000000" d="M0,2V4H2A2,2,0,0,1,0,2Z"/></svg><svg viewBox="0 0 4 4" x="1544" y="712" width="64" height="64" shape-rendering="auto"><path fill="#000000" d="M0,2A2,2,0,0,0,2,4H2A2,2,0,0,0,2,0H2A2,2,0,0,0,0,2Z"/></svg><svg viewBox="0 0 4 4" x="1672" y="712" width="64" height="64" shape-rendering="auto"><path fill="#000000" d="M0,2A2,2,0,0,0,2,4H2A2,2,0,0,0,2,0H2A2,2,0,0,0,0,2Z"/></svg><svg viewBox="0 0 4 4" x="200" y="776" width="64" height="64" shape-rendering="auto"><path fill="#000000" d="M4,2V0H2A2,2,0,0,1,4,2Z"/></svg><svg viewBox="0 0 4 4" x="200" y="776" width="64" height="64" shape-rendering="auto"><path fill="#000000" d="M2,4H4V2A2,2,0,0,1,2,4Z"/></svg><svg viewBox="0 0 4 4" x="264" y="776" width="64" height="64" shape-rendering="auto"><rect fill="#000000" width="4" height="4"/></svg><svg viewBox="0 0 4 4" x="328" y="776" width="64" height="64" shape-rendering="auto"><path fill="#000000" d="M0,2V0H2A2,2,0,0,0,0,2Z"/></svg><svg viewBox="0 0 4 4" x="328" y="776" width="64" height="64" shape-rendering="auto"><path fill="#000000" d="M0,2V4H2A2,2,0,0,1,0,2Z"/></svg><svg viewBox="0 0 4 4" x="712" y="776" width="64" height="64" shape-rendering="auto"><path fill="#000000" d="M4,2V0H2A2,2,0,0,1,4,2Z"/></svg><svg viewBox="0 0 4 4" x="712" y="776" width="64" height="64" shape-rendering="auto"><path fill="#000000" d="M2,4H4V2A2,2,0,0,1,2,4Z"/></svg><svg viewBox="0 0 4 4" x="776" y="776" width="64" height="64" shape-rendering="auto"><rect fill="#000000" width="4" height="4"/></svg><svg viewBox="0 0 4 4" x="840" y="776" width="64" height="64" shape-rendering="auto"><path fill="#000000" d="M0,2V0H2A2,2,0,0,0,0,2Z"/></svg><svg viewBox="0 0 4 4" x="1032" y="776" width="64" height="64" shape-rendering="auto"><path fill="#000000" d="M4,2V0H2A2,2,0,0,1,4,2Z"/></svg><svg viewBox="0 0 4 4" x="1096" y="776" width="64" height="64" shape-rendering="auto"><rect fill="#000000" width="4" height="4"/></svg><svg viewBox="0 0 4 4" x="1160" y="776" width="64" height="64" shape-rendering="auto"><rect fill="#000000" width="4" height="4"/></svg><svg viewBox="0 0 4 4" x="1224" y="776" width="64" height="64" shape-rendering="auto"><rect fill="#000000" width="4" height="4"/></svg><svg viewBox="0 0 4 4" x="1288" y="776" width="64" height="64" shape-rendering="auto"><rect fill="#000000" width="4" height="4"/></svg><svg viewBox="0 0 4 4" x="1352" y="776" width="64" height="64" shape-rendering="auto"><path fill="#000000" d="M0,2V4H2A2,2,0,0,1,0,2Z"/></svg><svg viewBox="0 0 4 4" x="1416" y="776" width="64" height="64" shape-rendering="auto"><path fill="#000000" d="M2,4H4V0H0V2A2,2,0,0,0,2,4Z"/></svg><svg viewBox="0 0 4 4" x="1480" y="776" width="64" height="64" shape-rendering="auto"><path fill="#000000" d="M4,2V4H0V0H2A2,2,0,0,1,4,2Z"/></svg><svg viewBox="0 0 4 4" x="1736" y="776" width="64" height="64" shape-rendering="auto"><path fill="#000000" d="M0,2A2,2,0,0,0,2,4H2A2,2,0,0,0,2,0H2A2,2,0,0,0,0,2Z"/></svg><svg viewBox="0 0 4 4" x="200" y="840" width="64" height="64" shape-rendering="auto"><path fill="#000000" d="M4,0H2A2,2,0,0,0,2,4H4Z"/></svg><svg viewBox="0 0 4 4" x="264" y="840" width="64" height="64" shape-rendering="auto"><rect fill="#000000" width="4" height="4"/></svg><svg viewBox="0 0 4 4" x="328" y="840" width="64" height="64" shape-rendering="auto"><rect fill="#000000" width="4" height="4"/></svg><svg viewBox="0 0 4 4" x="392" y="840" width="64" height="64" shape-rendering="auto"><path fill="#000000" d="M0,4H2A2,2,0,0,0,2,0H0Z"/></svg><svg viewBox="0 0 4 4" x="584" y="840" width="64" height="64" shape-rendering="auto"><path fill="#000000" d="M0,2A2,2,0,0,0,2,4H2A2,2,0,0,0,2,0H2A2,2,0,0,0,0,2Z"/></svg><svg viewBox="0 0 4 4" x="648" y="840" width="64" height="64" shape-rendering="auto"><path fill="#000000" d="M2,4H4V2A2,2,0,0,1,2,4Z"/></svg><svg viewBox="0 0 4 4" x="712" y="840" width="64" height="64" shape-rendering="auto"><path fill="#000000" d="M0,2V4H4V0H2A2,2,0,0,0,0,2Z"/></svg><svg viewBox="0 0 4 4" x="776" y="840" width="64" height="64" shape-rendering="auto"><rect fill="#000000" width="4" height="4"/></svg><svg viewBox="0 0 4 4" x="840" y="840" width="64" height="64" shape-rendering="auto"><path fill="#000000" d="M2,4H4V2A2,2,0,0,1,2,4Z"/></svg><svg viewBox="0 0 4 4" x="840" y="840" width="64" height="64" shape-rendering="auto"><path fill="#000000" d="M0,2V4H2A2,2,0,0,1,0,2Z"/></svg><svg viewBox="0 0 4 4" x="904" y="840" width="64" height="64" shape-rendering="auto"><path fill="#000000" d="M0,2V4H4V0H2A2,2,0,0,0,0,2Z"/></svg><svg viewBox="0 0 4 4" x="968" y="840" width="64" height="64" shape-rendering="auto"><path fill="#000000" d="M0,4H2A2,2,0,0,0,2,0H0Z"/></svg><svg viewBox="0 0 4 4" x="1096" y="840" width="64" height="64" shape-rendering="auto"><path fill="#000000" d="M2,4H4V0H0V2A2,2,0,0,0,2,4Z"/></svg><svg viewBox="0 0 4 4" x="1160" y="840" width="64" height="64" shape-rendering="auto"><path fill="#000000" d="M2,4H0V0H4V2A2,2,0,0,1,2,4Z"/></svg><svg viewBox="0 0 4 4" x="1224" y="840" width="64" height="64" shape-rendering="auto"><path fill="#000000" d="M0,2V0H2A2,2,0,0,0,0,2Z"/></svg><svg viewBox="0 0 4 4" x="1224" y="840" width="64" height="64" shape-rendering="auto"><path fill="#000000" d="M4,2V0H2A2,2,0,0,1,4,2Z"/></svg><svg viewBox="0 0 4 4" x="1224" y="840" width="64" height="64" shape-rendering="auto"><path fill="#000000" d="M2,4H4V2A2,2,0,0,1,2,4Z"/></svg><svg viewBox="0 0 4 4" x="1288" y="840" width="64" height="64" shape-rendering="auto"><rect fill="#000000" width="4" height="4"/></svg><svg viewBox="0 0 4 4" x="1352" y="840" width="64" height="64" shape-rendering="auto"><path fill="#000000" d="M0,4H2A2,2,0,0,0,2,0H0Z"/></svg><svg viewBox="0 0 4 4" x="1416" y="840" width="64" height="64" shape-rendering="auto"><path fill="#000000" d="M4,2V0H2A2,2,0,0,1,4,2Z"/></svg><svg viewBox="0 0 4 4" x="1480" y="840" width="64" height="64" shape-rendering="auto"><path fill="#000000" d="M0,0V2A2,2,0,0,0,4,2H4V0Z"/></svg><svg viewBox="0 0 4 4" x="1608" y="840" width="64" height="64" shape-rendering="auto"><path fill="#000000" d="M0,2A2,2,0,0,0,2,4H2A2,2,0,0,0,2,0H2A2,2,0,0,0,0,2Z"/></svg><svg viewBox="0 0 4 4" x="200" y="904" width="64" height="64" shape-rendering="auto"><path fill="#000000" d="M4,2V0H2A2,2,0,0,1,4,2Z"/></svg><svg viewBox="0 0 4 4" x="264" y="904" width="64" height="64" shape-rendering="auto"><path fill="#000000" d="M2,4H4V0H0V2A2,2,0,0,0,2,4Z"/></svg><svg viewBox="0 0 4 4" x="328" y="904" width="64" height="64" shape-rendering="auto"><path fill="#000000" d="M2,4H0V0H4V2A2,2,0,0,1,2,4Z"/></svg><svg viewBox="0 0 4 4" x="392" y="904" width="64" height="64" shape-rendering="auto"><path fill="#000000" d="M0,2V0H2A2,2,0,0,0,0,2Z"/></svg><svg viewBox="0 0 4 4" x="584" y="904" width="64" height="64" shape-rendering="auto"><path fill="#000000" d="M2,4H4V2A2,2,0,0,1,2,4Z"/></svg><svg viewBox="0 0 4 4" x="648" y="904" width="64" height="64" shape-rendering="auto"><path fill="#000000" d="M0,2V4H4V0H2A2,2,0,0,0,0,2Z"/></svg><svg viewBox="0 0 4 4" x="712" y="904" width="64" height="64" shape-rendering="auto"><rect fill="#000000" width="4" height="4"/></svg><svg viewBox="0 0 4 4" x="776" y="904" width="64" height="64" shape-rendering="auto"><rect fill="#000000" width="4" height="4"/></svg><svg viewBox="0 0 4 4" x="840" y="904" width="64" height="64" shape-rendering="auto"><rect fill="#000000" width="4" height="4"/></svg><svg viewBox="0 0 4 4" x="904" y="904" width="64" height="64" shape-rendering="auto"><rect fill="#000000" width="4" height="4"/></svg><svg viewBox="0 0 4 4" x="968" y="904" width="64" height="64" shape-rendering="auto"><path fill="#000000" d="M0,2V0H2A2,2,0,0,0,0,2Z"/></svg><svg viewBox="0 0 4 4" x="1032" y="904" width="64" height="64" shape-rendering="auto"><path fill="#000000" d="M0,2A2,2,0,0,0,2,4H2A2,2,0,0,0,2,0H2A2,2,0,0,0,0,2Z"/></svg><svg viewBox="0 0 4 4" x="1224" y="904" width="64" height="64" shape-rendering="auto"><path fill="#000000" d="M4,0H2A2,2,0,0,0,2,4H4Z"/></svg><svg viewBox="0 0 4 4" x="1288" y="904" width="64" height="64" shape-rendering="auto"><path fill="#000000" d="M2,4H0V0H4V2A2,2,0,0,1,2,4Z"/></svg><svg viewBox="0 0 4 4" x="1352" y="904" width="64" height="64" shape-rendering="auto"><path fill="#000000" d="M0,2V0H2A2,2,0,0,0,0,2Z"/></svg><svg viewBox="0 0 4 4" x="200" y="968" width="64" height="64" shape-rendering="auto"><path fill="#000000" d="M4,4V2A2,2,0,0,0,0,2H0V4Z"/></svg><svg viewBox="0 0 4 4" x="456" y="968" width="64" height="64" shape-rendering="auto"><path fill="#000000" d="M0,2V4H4V0H2A2,2,0,0,0,0,2Z"/></svg><svg viewBox="0 0 4 4" x="520" y="968" width="64" height="64" shape-rendering="auto"><rect fill="#000000" width="4" height="4"/></svg><svg viewBox="0 0 4 4" x="584" y="968" width="64" height="64" shape-rendering="auto"><rect fill="#000000" width="4" height="4"/></svg><svg viewBox="0 0 4 4" x="648" y="968" width="64" height="64" shape-rendering="auto"><rect fill="#000000" width="4" height="4"/></svg><svg viewBox="0 0 4 4" x="712" y="968" width="64" height="64" shape-rendering="auto"><rect fill="#000000" width="4" height="4"/></svg><svg viewBox="0 0 4 4" x="776" y="968" width="64" height="64" shape-rendering="auto"><rect fill="#000000" width="4" height="4"/></svg><svg viewBox="0 0 4 4" x="840" y="968" width="64" height="64" shape-rendering="auto"><path fill="#000000" d="M0,2V0H2A2,2,0,0,0,0,2Z"/></svg><svg viewBox="0 0 4 4" x="840" y="968" width="64" height="64" shape-rendering="auto"><path fill="#000000" d="M4,2V0H2A2,2,0,0,1,4,2Z"/></svg><svg viewBox="0 0 4 4" x="840" y="968" width="64" height="64" shape-rendering="auto"><path fill="#000000" d="M0,2V4H2A2,2,0,0,1,0,2Z"/></svg><svg viewBox="0 0 4 4" x="904" y="968" width="64" height="64" shape-rendering="auto"><path fill="#000000" d="M0,0V2A2,2,0,0,0,4,2H4V0Z"/></svg><svg viewBox="0 0 4 4" x="1160" y="968" width="64" height="64" shape-rendering="auto"><path fill="#000000" d="M0,2A2,2,0,0,0,2,4H2A2,2,0,0,0,2,0H2A2,2,0,0,0,0,2Z"/></svg><svg viewBox="0 0 4 4" x="1288" y="968" width="64" height="64" shape-rendering="auto"><path fill="#000000" d="M2,4H4V2A2,2,0,0,1,2,4Z"/></svg><svg viewBox="0 0 4 4" x="1352" y="968" width="64" height="64" shape-rendering="auto"><path fill="#000000" d="M0,2V4H4V0H2A2,2,0,0,0,0,2Z"/></svg><svg viewBox="0 0 4 4" x="1416" y="968" width="64" height="64" shape-rendering="auto"><rect fill="#000000" width="4" height="4"/></svg><svg viewBox="0 0 4 4" x="1480" y="968" width="64" height="64" shape-rendering="auto"><rect fill="#000000" width="4" height="4"/></svg><svg viewBox="0 0 4 4" x="1544" y="968" width="64" height="64" shape-rendering="auto"><path fill="#000000" d="M0,4H2A2,2,0,0,0,2,0H0Z"/></svg><svg viewBox="0 0 4 4" x="1672" y="968" width="64" height="64" shape-rendering="auto"><path fill="#000000" d="M4,0H2A2,2,0,0,0,2,4H4Z"/></svg><svg viewBox="0 0 4 4" x="1736" y="968" width="64" height="64" shape-rendering="auto"><path fill="#000000" d="M0,4H2A2,2,0,0,0,2,0H0Z"/></svg><svg viewBox="0 0 4 4" x="200" y="1032" width="64" height="64" shape-rendering="auto"><rect fill="#000000" width="4" height="4"/></svg><svg viewBox="0 0 4 4" x="456" y="1032" width="64" height="64" shape-rendering="auto"><rect fill="#000000" width="4" height="4"/></svg><svg viewBox="0 0 4 4" x="520" y="1032" width="64" height="64" shape-rendering="auto"><path fill="#000000" d="M2,4H0V0H4V2A2,2,0,0,1,2,4Z"/></svg><svg viewBox="0 0 4 4" x="584" y="1032" width="64" height="64" shape-rendering="auto"><path fill="#000000" d="M0,2V0H2A2,2,0,0,0,0,2Z"/></svg><svg viewBox="0 0 4 4" x="712" y="1032" width="64" height="64" shape-rendering="auto"><path fill="#000000" d="M4,2V0H2A2,2,0,0,1,4,2Z"/></svg><svg viewBox="0 0 4 4" x="712" y="1032" width="64" height="64" shape-rendering="auto"><path fill="#000000" d="M2,4H4V2A2,2,0,0,1,2,4Z"/></svg><svg viewBox="0 0 4 4" x="776" y="1032" width="64" height="64" shape-rendering="auto"><rect fill="#000000" width="4" height="4"/></svg><svg viewBox="0 0 4 4" x="840" y="1032" width="64" height="64" shape-rendering="auto"><path fill="#000000" d="M4,2V4H0V0H2A2,2,0,0,1,4,2Z"/></svg><svg viewBox="0 0 4 4" x="968" y="1032" width="64" height="64" shape-rendering="auto"><path fill="#000000" d="M0,2A2,2,0,0,0,2,4H2A2,2,0,0,0,2,0H2A2,2,0,0,0,0,2Z"/></svg><svg viewBox="0 0 4 4" x="1032" y="1032" width="64" height="64" shape-rendering="auto"><path fill="#000000" d="M2,4H4V2A2,2,0,0,1,2,4Z"/></svg><svg viewBox="0 0 4 4" x="1096" y="1032" width="64" height="64" shape-rendering="auto"><path fill="#000000" d="M4,4V2A2,2,0,0,0,0,2H0V4Z"/></svg><svg viewBox="0 0 4 4" x="1224" y="1032" width="64" height="64" shape-rendering="auto"><path fill="#000000" d="M4,0H2A2,2,0,0,0,2,4H4Z"/></svg><svg viewBox="0 0 4 4" x="1288" y="1032" width="64" height="64" shape-rendering="auto"><rect fill="#000000" width="4" height="4"/></svg><svg viewBox="0 0 4 4" x="1352" y="1032" width="64" height="64" shape-rendering="auto"><rect fill="#000000" width="4" height="4"/></svg><svg viewBox="0 0 4 4" x="1416" y="1032" width="64" height="64" shape-rendering="auto"><rect fill="#000000" width="4" height="4"/></svg><svg viewBox="0 0 4 4" x="1480" y="1032" width="64" height="64" shape-rendering="auto"><rect fill="#000000" width="4" height="4"/></svg><svg viewBox="0 0 4 4" x="1544" y="1032" width="64" height="64" shape-rendering="auto"><path fill="#000000" d="M0,2V0H2A2,2,0,0,0,0,2Z"/></svg><svg viewBox="0 0 4 4" x="200" y="1096" width="64" height="64" shape-rendering="auto"><rect fill="#000000" width="4" height="4"/></svg><svg viewBox="0 0 4 4" x="456" y="1096" width="64" height="64" shape-rendering="auto"><rect fill="#000000" width="4" height="4"/></svg><svg viewBox="0 0 4 4" x="520" y="1096" width="64" height="64" shape-rendering="auto"><path fill="#000000" d="M0,2V0H2A2,2,0,0,0,0,2Z"/></svg><svg viewBox="0 0 4 4" x="584" y="1096" width="64" height="64" shape-rendering="auto"><path fill="#000000" d="M0,2A2,2,0,0,0,2,4H2A2,2,0,0,0,2,0H2A2,2,0,0,0,0,2Z"/></svg><svg viewBox="0 0 4 4" x="712" y="1096" width="64" height="64" shape-rendering="auto"><path fill="#000000" d="M0,2V4H4V0H2A2,2,0,0,0,0,2Z"/></svg><svg viewBox="0 0 4 4" x="776" y="1096" width="64" height="64" shape-rendering="auto"><rect fill="#000000" width="4" height="4"/></svg><svg viewBox="0 0 4 4" x="840" y="1096" width="64" height="64" shape-rendering="auto"><path fill="#000000" d="M2,4H0V0H4V2A2,2,0,0,1,2,4Z"/></svg><svg viewBox="0 0 4 4" x="1032" y="1096" width="64" height="64" shape-rendering="auto"><path fill="#000000" d="M4,0H2A2,2,0,0,0,2,4H4Z"/></svg><svg viewBox="0 0 4 4" x="1096" y="1096" width="64" height="64" shape-rendering="auto"><rect fill="#000000" width="4" height="4"/></svg><svg viewBox="0 0 4 4" x="1224" y="1096" width="64" height="64" shape-rendering="auto"><path fill="#000000" d="M4,2V0H2A2,2,0,0,1,4,2Z"/></svg><svg viewBox="0 0 4 4" x="1288" y="1096" width="64" height="64" shape-rendering="auto"><rect fill="#000000" width="4" height="4"/></svg><svg viewBox="0 0 4 4" x="1352" y="1096" width="64" height="64" shape-rendering="auto"><path fill="#000000" d="M2,4H0V0H4V2A2,2,0,0,1,2,4Z"/></svg><svg viewBox="0 0 4 4" x="1416" y="1096" width="64" height="64" shape-rendering="auto"><path fill="#000000" d="M0,2V0H2A2,2,0,0,0,0,2Z"/></svg><svg viewBox="0 0 4 4" x="1416" y="1096" width="64" height="64" shape-rendering="auto"><path fill="#000000" d="M4,2V0H2A2,2,0,0,1,4,2Z"/></svg><svg viewBox="0 0 4 4" x="1480" y="1096" width="64" height="64" shape-rendering="auto"><path fill="#000000" d="M0,0V2A2,2,0,0,0,4,2H4V0Z"/></svg><svg viewBox="0 0 4 4" x="1608" y="1096" width="64" height="64" shape-rendering="auto"><path fill="#000000" d="M4,0H2A2,2,0,0,0,2,4H4Z"/></svg><svg viewBox="0 0 4 4" x="1672" y="1096" width="64" height="64" shape-rendering="auto"><rect fill="#000000" width="4" height="4"/></svg><svg viewBox="0 0 4 4" x="1736" y="1096" width="64" height="64" shape-rendering="auto"><path fill="#000000" d="M4,2V4H0V0H2A2,2,0,0,1,4,2Z"/></svg><svg viewBox="0 0 4 4" x="200" y="1160" width="64" height="64" shape-rendering="auto"><rect fill="#000000" width="4" height="4"/></svg><svg viewBox="0 0 4 4" x="328" y="1160" width="64" height="64" shape-rendering="auto"><path fill="#000000" d="M0,2A2,2,0,0,0,2,4H2A2,2,0,0,0,2,0H2A2,2,0,0,0,0,2Z"/></svg><svg viewBox="0 0 4 4" x="392" y="1160" width="64" height="64" shape-rendering="auto"><path fill="#000000" d="M2,4H4V2A2,2,0,0,1,2,4Z"/></svg><svg viewBox="0 0 4 4" x="456" y="1160" width="64" height="64" shape-rendering="auto"><rect fill="#000000" width="4" height="4"/></svg><svg viewBox="0 0 4 4" x="520" y="1160" width="64" height="64" shape-rendering="auto"><path fill="#000000" d="M0,2V4H2A2,2,0,0,1,0,2Z"/></svg><svg viewBox="0 0 4 4" x="712" y="1160" width="64" height="64" shape-rendering="auto"><rect fill="#000000" width="4" height="4"/></svg><svg viewBox="0 0 4 4" x="776" y="1160" width="64" height="64" shape-rendering="auto"><rect fill="#000000" width="4" height="4"/></svg><svg viewBox="0 0 4 4" x="840" y="1160" width="64" height="64" shape-rendering="auto"><path fill="#000000" d="M0,2V0H2A2,2,0,0,0,0,2Z"/></svg><svg viewBox="0 0 4 4" x="840" y="1160" width="64" height="64" shape-rendering="auto"><path fill="#000000" d="M0,2V4H2A2,2,0,0,1,0,2Z"/></svg><svg viewBox="0 0 4 4" x="968" y="1160" width="64" height="64" shape-rendering="auto"><path fill="#000000" d="M4,4V2A2,2,0,0,0,0,2H0V4Z"/></svg><svg viewBox="0 0 4 4" x="1032" y="1160" width="64" height="64" shape-rendering="auto"><path fill="#000000" d="M4,2V0H2A2,2,0,0,1,4,2Z"/></svg><svg viewBox="0 0 4 4" x="1032" y="1160" width="64" height="64" shape-rendering="auto"><path fill="#000000" d="M0,2V4H2A2,2,0,0,1,0,2Z"/></svg><svg viewBox="0 0 4 4" x="1096" y="1160" width="64" height="64" shape-rendering="auto"><path fill="#000000" d="M0,0V2A2,2,0,0,0,4,2H4V0Z"/></svg><svg viewBox="0 0 4 4" x="1224" y="1160" width="64" height="64" shape-rendering="auto"><path fill="#000000" d="M2,4H4V2A2,2,0,0,1,2,4Z"/></svg><svg viewBox="0 0 4 4" x="1288" y="1160" width="64" height="64" shape-rendering="auto"><rect fill="#000000" width="4" height="4"/></svg><svg viewBox="0 0 4 4" x="1352" y="1160" width="64" height="64" shape-rendering="auto"><path fill="#000000" d="M0,2V0H2A2,2,0,0,0,0,2Z"/></svg><svg viewBox="0 0 4 4" x="1352" y="1160" width="64" height="64" shape-rendering="auto"><path fill="#000000" d="M0,2V4H2A2,2,0,0,1,0,2Z"/></svg><svg viewBox="0 0 4 4" x="1608" y="1160" width="64" height="64" shape-rendering="auto"><path fill="#000000" d="M4,2V0H2A2,2,0,0,1,4,2Z"/></svg><svg viewBox="0 0 4 4" x="1672" y="1160" width="64" height="64" shape-rendering="auto"><path fill="#000000" d="M2,4H4V0H0V2A2,2,0,0,0,2,4Z"/></svg><svg viewBox="0 0 4 4" x="1736" y="1160" width="64" height="64" shape-rendering="auto"><rect fill="#000000" width="4" height="4"/></svg><svg viewBox="0 0 4 4" x="200" y="1224" width="64" height="64" shape-rendering="auto"><path fill="#000000" d="M0,0V2A2,2,0,0,0,4,2H4V0Z"/></svg><svg viewBox="0 0 4 4" x="392" y="1224" width="64" height="64" shape-rendering="auto"><path fill="#000000" d="M4,0H2A2,2,0,0,0,2,4H4Z"/></svg><svg viewBox="0 0 4 4" x="456" y="1224" width="64" height="64" shape-rendering="auto"><rect fill="#000000" width="4" height="4"/></svg><svg viewBox="0 0 4 4" x="520" y="1224" width="64" height="64" shape-rendering="auto"><rect fill="#000000" width="4" height="4"/></svg><svg viewBox="0 0 4 4" x="584" y="1224" width="64" height="64" shape-rendering="auto"><path fill="#000000" d="M0,4H2A2,2,0,0,0,2,0H0Z"/></svg><svg viewBox="0 0 4 4" x="712" y="1224" width="64" height="64" shape-rendering="auto"><rect fill="#000000" width="4" height="4"/></svg><svg viewBox="0 0 4 4" x="776" y="1224" width="64" height="64" shape-rendering="auto"><rect fill="#000000" width="4" height="4"/></svg><svg viewBox="0 0 4 4" x="840" y="1224" width="64" height="64" shape-rendering="auto"><path fill="#000000" d="M0,4H2A2,2,0,0,0,2,0H0Z"/></svg><svg viewBox="0 0 4 4" x="968" y="1224" width="64" height="64" shape-rendering="auto"><path fill="#000000" d="M2,4H4V0H0V2A2,2,0,0,0,2,4Z"/></svg><svg viewBox="0 0 4 4" x="1032" y="1224" width="64" height="64" shape-rendering="auto"><path fill="#000000" d="M0,4H2A2,2,0,0,0,2,0H0Z"/></svg><svg viewBox="0 0 4 4" x="1160" y="1224" width="64" height="64" shape-rendering="auto"><path fill="#000000" d="M4,0H2A2,2,0,0,0,2,4H4Z"/></svg><svg viewBox="0 0 4 4" x="1224" y="1224" width="64" height="64" shape-rendering="auto"><rect fill="#000000" width="4" height="4"/></svg><svg viewBox="0 0 4 4" x="1288" y="1224" width="64" height="64" shape-rendering="auto"><rect fill="#000000" width="4" height="4"/></svg><svg viewBox="0 0 4 4" x="1352" y="1224" width="64" height="64" shape-rendering="auto"><rect fill="#000000" width="4" height="4"/></svg><svg viewBox="0 0 4 4" x="1416" y="1224" width="64" height="64" shape-rendering="auto"><rect fill="#000000" width="4" height="4"/></svg><svg viewBox="0 0 4 4" x="1480" y="1224" width="64" height="64" shape-rendering="auto"><rect fill="#000000" width="4" height="4"/></svg><svg viewBox="0 0 4 4" x="1544" y="1224" width="64" height="64" shape-rendering="auto"><path fill="#000000" d="M0,4H2A2,2,0,0,0,2,0H0Z"/></svg><svg viewBox="0 0 4 4" x="1672" y="1224" width="64" height="64" shape-rendering="auto"><path fill="#000000" d="M4,2V0H2A2,2,0,0,1,4,2Z"/></svg><svg viewBox="0 0 4 4" x="1736" y="1224" width="64" height="64" shape-rendering="auto"><rect fill="#000000" width="4" height="4"/></svg><svg viewBox="0 0 4 4" x="712" y="1288" width="64" height="64" shape-rendering="auto"><rect fill="#000000" width="4" height="4"/></svg><svg viewBox="0 0 4 4" x="776" y="1288" width="64" height="64" shape-rendering="auto"><path fill="#000000" d="M0,2V0H2A2,2,0,0,0,0,2Z"/></svg><svg viewBox="0 0 4 4" x="776" y="1288" width="64" height="64" shape-rendering="auto"><path fill="#000000" d="M0,2V4H2A2,2,0,0,1,0,2Z"/></svg><svg viewBox="0 0 4 4" x="1160" y="1288" width="64" height="64" shape-rendering="auto"><path fill="#000000" d="M4,2V0H2A2,2,0,0,1,4,2Z"/></svg><svg viewBox="0 0 4 4" x="1224" y="1288" width="64" height="64" shape-rendering="auto"><rect fill="#000000" width="4" height="4"/></svg><svg viewBox="0 0 4 4" x="1288" y="1288" width="64" height="64" shape-rendering="auto"><path fill="#000000" d="M0,2V0H2A2,2,0,0,0,0,2Z"/></svg><svg viewBox="0 0 4 4" x="1416" y="1288" width="64" height="64" shape-rendering="auto"><path fill="#000000" d="M4,2V0H2A2,2,0,0,1,4,2Z"/></svg><svg viewBox="0 0 4 4" x="1480" y="1288" width="64" height="64" shape-rendering="auto"><rect fill="#000000" width="4" height="4"/></svg><svg viewBox="0 0 4 4" x="1544" y="1288" width="64" height="64" shape-rendering="auto"><path fill="#000000" d="M0,2V0H2A2,2,0,0,0,0,2Z"/></svg><svg viewBox="0 0 4 4" x="1672" y="1288" width="64" height="64" shape-rendering="auto"><path fill="#000000" d="M2,4H4V2A2,2,0,0,1,2,4Z"/></svg><svg viewBox="0 0 4 4" x="1736" y="1288" width="64" height="64" shape-rendering="auto"><rect fill="#000000" width="4" height="4"/></svg><svg viewBox="0 0 4 4" x="712" y="1352" width="64" height="64" shape-rendering="auto"><path fill="#000000" d="M2,4H4V0H0V2A2,2,0,0,0,2,4Z"/></svg><svg viewBox="0 0 4 4" x="776" y="1352" width="64" height="64" shape-rendering="auto"><path fill="#000000" d="M0,4H2A2,2,0,0,0,2,0H0Z"/></svg><svg viewBox="0 0 4 4" x="840" y="1352" width="64" height="64" shape-rendering="auto"><path fill="#000000" d="M2,4H4V2A2,2,0,0,1,2,4Z"/></svg><svg viewBox="0 0 4 4" x="904" y="1352" width="64" height="64" shape-rendering="auto"><path fill="#000000" d="M0,2V4H4V0H2A2,2,0,0,0,0,2Z"/></svg><svg viewBox="0 0 4 4" x="968" y="1352" width="64" height="64" shape-rendering="auto"><rect fill="#000000" width="4" height="4"/></svg><svg viewBox="0 0 4 4" x="1032" y="1352" width="64" height="64" shape-rendering="auto"><rect fill="#000000" width="4" height="4"/></svg><svg viewBox="0 0 4 4" x="1096" y="1352" width="64" height="64" shape-rendering="auto"><path fill="#000000" d="M0,4H2A2,2,0,0,0,2,0H0Z"/></svg><svg viewBox="0 0 4 4" x="1224" y="1352" width="64" height="64" shape-rendering="auto"><rect fill="#000000" width="4" height="4"/></svg><svg viewBox="0 0 4 4" x="1352" y="1352" width="64" height="64" shape-rendering="auto"><path fill="#000000" d="M0,2A2,2,0,0,0,2,4H2A2,2,0,0,0,2,0H2A2,2,0,0,0,0,2Z"/></svg><svg viewBox="0 0 4 4" x="1480" y="1352" width="64" height="64" shape-rendering="auto"><rect fill="#000000" width="4" height="4"/></svg><svg viewBox="0 0 4 4" x="1544" y="1352" width="64" height="64" shape-rendering="auto"><path fill="#000000" d="M0,2V4H2A2,2,0,0,1,0,2Z"/></svg><svg viewBox="0 0 4 4" x="1608" y="1352" width="64" height="64" shape-rendering="auto"><path fill="#000000" d="M4,0H2A2,2,0,0,0,2,4H4Z"/></svg><svg viewBox="0 0 4 4" x="1672" y="1352" width="64" height="64" shape-rendering="auto"><rect fill="#000000" width="4" height="4"/></svg><svg viewBox="0 0 4 4" x="1736" y="1352" width="64" height="64" shape-rendering="auto"><path fill="#000000" d="M2,4H0V0H4V2A2,2,0,0,1,2,4Z"/></svg><svg viewBox="0 0 4 4" x="840" y="1416" width="64" height="64" shape-rendering="auto"><path fill="#000000" d="M4,0H2A2,2,0,0,0,2,4H4Z"/></svg><svg viewBox="0 0 4 4" x="904" y="1416" width="64" height="64" shape-rendering="auto"><rect fill="#000000" width="4" height="4"/></svg><svg viewBox="0 0 4 4" x="968" y="1416" width="64" height="64" shape-rendering="auto"><path fill="#000000" d="M0,2V0H2A2,2,0,0,0,0,2Z"/></svg><svg viewBox="0 0 4 4" x="968" y="1416" width="64" height="64" shape-rendering="auto"><path fill="#000000" d="M0,2V4H2A2,2,0,0,1,0,2Z"/></svg><svg viewBox="0 0 4 4" x="1224" y="1416" width="64" height="64" shape-rendering="auto"><rect fill="#000000" width="4" height="4"/></svg><svg viewBox="0 0 4 4" x="1288" y="1416" width="64" height="64" shape-rendering="auto"><path fill="#000000" d="M0,2V4H2A2,2,0,0,1,0,2Z"/></svg><svg viewBox="0 0 4 4" x="1416" y="1416" width="64" height="64" shape-rendering="auto"><path fill="#000000" d="M2,4H4V2A2,2,0,0,1,2,4Z"/></svg><svg viewBox="0 0 4 4" x="1480" y="1416" width="64" height="64" shape-rendering="auto"><rect fill="#000000" width="4" height="4"/></svg><svg viewBox="0 0 4 4" x="1544" y="1416" width="64" height="64" shape-rendering="auto"><path fill="#000000" d="M4,2V4H0V0H2A2,2,0,0,1,4,2Z"/></svg><svg viewBox="0 0 4 4" x="712" y="1480" width="64" height="64" shape-rendering="auto"><path fill="#000000" d="M0,2V4H4V0H2A2,2,0,0,0,0,2Z"/></svg><svg viewBox="0 0 4 4" x="776" y="1480" width="64" height="64" shape-rendering="auto"><path fill="#000000" d="M0,4H2A2,2,0,0,0,2,0H0Z"/></svg><svg viewBox="0 0 4 4" x="840" y="1480" width="64" height="64" shape-rendering="auto"><path fill="#000000" d="M4,2V0H2A2,2,0,0,1,4,2Z"/></svg><svg viewBox="0 0 4 4" x="904" y="1480" width="64" height="64" shape-rendering="auto"><path fill="#000000" d="M2,4H4V0H0V2A2,2,0,0,0,2,4Z"/></svg><svg viewBox="0 0 4 4" x="968" y="1480" width="64" height="64" shape-rendering="auto"><rect fill="#000000" width="4" height="4"/></svg><svg viewBox="0 0 4 4" x="1032" y="1480" width="64" height="64" shape-rendering="auto"><path fill="#000000" d="M0,4H2A2,2,0,0,0,2,0H0Z"/></svg><svg viewBox="0 0 4 4" x="1160" y="1480" width="64" height="64" shape-rendering="auto"><path fill="#000000" d="M2,4H4V2A2,2,0,0,1,2,4Z"/></svg><svg viewBox="0 0 4 4" x="1224" y="1480" width="64" height="64" shape-rendering="auto"><rect fill="#000000" width="4" height="4"/></svg><svg viewBox="0 0 4 4" x="1288" y="1480" width="64" height="64" shape-rendering="auto"><rect fill="#000000" width="4" height="4"/></svg><svg viewBox="0 0 4 4" x="1352" y="1480" width="64" height="64" shape-rendering="auto"><rect fill="#000000" width="4" height="4"/></svg><svg viewBox="0 0 4 4" x="1416" y="1480" width="64" height="64" shape-rendering="auto"><rect fill="#000000" width="4" height="4"/></svg><svg viewBox="0 0 4 4" x="1480" y="1480" width="64" height="64" shape-rendering="auto"><rect fill="#000000" width="4" height="4"/></svg><svg viewBox="0 0 4 4" x="1544" y="1480" width="64" height="64" shape-rendering="auto"><path fill="#000000" d="M2,4H0V0H4V2A2,2,0,0,1,2,4Z"/></svg><svg viewBox="0 0 4 4" x="712" y="1544" width="64" height="64" shape-rendering="auto"><rect fill="#000000" width="4" height="4"/></svg><svg viewBox="0 0 4 4" x="776" y="1544" width="64" height="64" shape-rendering="auto"><path fill="#000000" d="M0,2V0H2A2,2,0,0,0,0,2Z"/></svg><svg viewBox="0 0 4 4" x="904" y="1544" width="64" height="64" shape-rendering="auto"><path fill="#000000" d="M4,2V0H2A2,2,0,0,1,4,2Z"/></svg><svg viewBox="0 0 4 4" x="968" y="1544" width="64" height="64" shape-rendering="auto"><rect fill="#000000" width="4" height="4"/></svg><svg viewBox="0 0 4 4" x="1032" y="1544" width="64" height="64" shape-rendering="auto"><path fill="#000000" d="M0,2V0H2A2,2,0,0,0,0,2Z"/></svg><svg viewBox="0 0 4 4" x="1032" y="1544" width="64" height="64" shape-rendering="auto"><path fill="#000000" d="M0,2V4H2A2,2,0,0,1,0,2Z"/></svg><svg viewBox="0 0 4 4" x="1160" y="1544" width="64" height="64" shape-rendering="auto"><path fill="#000000" d="M4,0H2A2,2,0,0,0,2,4H4Z"/></svg><svg viewBox="0 0 4 4" x="1224" y="1544" width="64" height="64" shape-rendering="auto"><path fill="#000000" d="M2,4H0V0H4V2A2,2,0,0,1,2,4Z"/></svg><svg viewBox="0 0 4 4" x="1288" y="1544" width="64" height="64" shape-rendering="auto"><path fill="#000000" d="M0,2V0H2A2,2,0,0,0,0,2Z"/></svg><svg viewBox="0 0 4 4" x="1288" y="1544" width="64" height="64" shape-rendering="auto"><path fill="#000000" d="M4,2V0H2A2,2,0,0,1,4,2Z"/></svg><svg viewBox="0 0 4 4" x="1352" y="1544" width="64" height="64" shape-rendering="auto"><path fill="#000000" d="M0,0V2A2,2,0,0,0,4,2H4V0Z"/></svg><svg viewBox="0 0 4 4" x="1416" y="1544" width="64" height="64" shape-rendering="auto"><path fill="#000000" d="M0,2V0H2A2,2,0,0,0,0,2Z"/></svg><svg viewBox="0 0 4 4" x="1416" y="1544" width="64" height="64" shape-rendering="auto"><path fill="#000000" d="M4,2V0H2A2,2,0,0,1,4,2Z"/></svg><svg viewBox="0 0 4 4" x="1480" y="1544" width="64" height="64" shape-rendering="auto"><rect fill="#000000" width="4" height="4"/></svg><svg viewBox="0 0 4 4" x="1544" y="1544" width="64" height="64" shape-rendering="auto"><path fill="#000000" d="M0,2V0H2A2,2,0,0,0,0,2Z"/></svg><svg viewBox="0 0 4 4" x="1672" y="1544" width="64" height="64" shape-rendering="auto"><path fill="#000000" d="M4,0H2A2,2,0,0,0,2,4H4Z"/></svg><svg viewBox="0 0 4 4" x="1736" y="1544" width="64" height="64" shape-rendering="auto"><path fill="#000000" d="M4,2V4H0V0H2A2,2,0,0,1,4,2Z"/></svg><svg viewBox="0 0 4 4" x="712" y="1608" width="64" height="64" shape-rendering="auto"><rect fill="#000000" width="4" height="4"/></svg><svg viewBox="0 0 4 4" x="968" y="1608" width="64" height="64" shape-rendering="auto"><rect fill="#000000" width="4" height="4"/></svg><svg viewBox="0 0 4 4" x="1032" y="1608" width="64" height="64" shape-rendering="auto"><rect fill="#000000" width="4" height="4"/></svg><svg viewBox="0 0 4 4" x="1096" y="1608" width="64" height="64" shape-rendering="auto"><path fill="#000000" d="M0,4H2A2,2,0,0,0,2,0H0Z"/></svg><svg viewBox="0 0 4 4" x="1416" y="1608" width="64" height="64" shape-rendering="auto"><path fill="#000000" d="M2,4H4V2A2,2,0,0,1,2,4Z"/></svg><svg viewBox="0 0 4 4" x="1480" y="1608" width="64" height="64" shape-rendering="auto"><rect fill="#000000" width="4" height="4"/></svg><svg viewBox="0 0 4 4" x="1544" y="1608" width="64" height="64" shape-rendering="auto"><path fill="#000000" d="M0,2V4H2A2,2,0,0,1,0,2Z"/></svg><svg viewBox="0 0 4 4" x="1608" y="1608" width="64" height="64" shape-rendering="auto"><path fill="#000000" d="M0,2A2,2,0,0,0,2,4H2A2,2,0,0,0,2,0H2A2,2,0,0,0,0,2Z"/></svg><svg viewBox="0 0 4 4" x="1672" y="1608" width="64" height="64" shape-rendering="auto"><path fill="#000000" d="M4,2V0H2A2,2,0,0,1,4,2Z"/></svg><svg viewBox="0 0 4 4" x="1736" y="1608" width="64" height="64" shape-rendering="auto"><path fill="#000000" d="M0,0V2A2,2,0,0,0,4,2H4V0Z"/></svg><svg viewBox="0 0 4 4" x="712" y="1672" width="64" height="64" shape-rendering="auto"><rect fill="#000000" width="4" height="4"/></svg><svg viewBox="0 0 4 4" x="840" y="1672" width="64" height="64" shape-rendering="auto"><path fill="#000000" d="M4,4V2A2,2,0,0,0,0,2H0V4Z"/></svg><svg viewBox="0 0 4 4" x="968" y="1672" width="64" height="64" shape-rendering="auto"><rect fill="#000000" width="4" height="4"/></svg><svg viewBox="0 0 4 4" x="1032" y="1672" width="64" height="64" shape-rendering="auto"><rect fill="#000000" width="4" height="4"/></svg><svg viewBox="0 0 4 4" x="1096" y="1672" width="64" height="64" shape-rendering="auto"><path fill="#000000" d="M0,2V0H2A2,2,0,0,0,0,2Z"/></svg><svg viewBox="0 0 4 4" x="1224" y="1672" width="64" height="64" shape-rendering="auto"><path fill="#000000" d="M4,0H2A2,2,0,0,0,2,4H4Z"/></svg><svg viewBox="0 0 4 4" x="1288" y="1672" width="64" height="64" shape-rendering="auto"><rect fill="#000000" width="4" height="4"/></svg><svg viewBox="0 0 4 4" x="1352" y="1672" width="64" height="64" shape-rendering="auto"><rect fill="#000000" width="4" height="4"/></svg><svg viewBox="0 0 4 4" x="1416" y="1672" width="64" height="64" shape-rendering="auto"><rect fill="#000000" width="4" height="4"/></svg><svg viewBox="0 0 4 4" x="1480" y="1672" width="64" height="64" shape-rendering="auto"><rect fill="#000000" width="4" height="4"/></svg><svg viewBox="0 0 4 4" x="1544" y="1672" width="64" height="64" shape-rendering="auto"><path fill="#000000" d="M0,4H2A2,2,0,0,0,2,0H0Z"/></svg><svg viewBox="0 0 4 4" x="1608" y="1672" width="64" height="64" shape-rendering="auto"><path fill="#000000" d="M2,4H4V2A2,2,0,0,1,2,4Z"/></svg><svg viewBox="0 0 4 4" x="1672" y="1672" width="64" height="64" shape-rendering="auto"><path fill="#000000" d="M4,4V2A2,2,0,0,0,0,2H0V4Z"/></svg><svg viewBox="0 0 4 4" x="1736" y="1672" width="64" height="64" shape-rendering="auto"><path fill="#000000" d="M0,2V4H2A2,2,0,0,1,0,2Z"/></svg><svg viewBox="0 0 4 4" x="712" y="1736" width="64" height="64" shape-rendering="auto"><path fill="#000000" d="M0,0V2A2,2,0,0,0,4,2H4V0Z"/></svg><svg viewBox="0 0 4 4" x="840" y="1736" width="64" height="64" shape-rendering="auto"><path fill="#000000" d="M0,0V2A2,2,0,0,0,4,2H4V0Z"/></svg><svg viewBox="0 0 4 4" x="968" y="1736" width="64" height="64" shape-rendering="auto"><path fill="#000000" d="M2,4H4V0H0V2A2,2,0,0,0,2,4Z"/></svg><svg viewBox="0 0 4 4" x="1032" y="1736" width="64" height="64" shape-rendering="auto"><path fill="#000000" d="M2,4H0V0H4V2A2,2,0,0,1,2,4Z"/></svg><svg viewBox="0 0 4 4" x="1160" y="1736" width="64" height="64" shape-rendering="auto"><path fill="#000000" d="M0,2A2,2,0,0,0,2,4H2A2,2,0,0,0,2,0H2A2,2,0,0,0,0,2Z"/></svg><svg viewBox="0 0 4 4" x="1608" y="1736" width="64" height="64" shape-rendering="auto"><path fill="#000000" d="M4,0H2A2,2,0,0,0,2,4H4Z"/></svg><svg viewBox="0 0 4 4" x="1672" y="1736" width="64" height="64" shape-rendering="auto"><rect fill="#000000" width="4" height="4"/></svg><svg viewBox="0 0 4 4" x="1736" y="1736" width="64" height="64" shape-rendering="auto"><path fill="#000000" d="M0,4H2A2,2,0,0,0,2,0H0Z"/></svg><svg version="1.1" id="Ebene_1" x="200" y="200" width="448" height="448" viewBox="0 0 699.988 699.986" enable-background="new 0 0 699.988 699.986" xml:space="preserve" shape-rendering="auto">
<g>
	<path fill="#000000" d="M472.469,699.987H1V228.525C1,167.698,24.829,110.37,68.099,67.1C111.368,23.83,168.697,0,229.523,0   h471.465v471.463c0,60.824-23.83,118.153-67.1,161.426C590.618,676.158,533.292,699.987,472.469,699.987z M100.998,599.989H461.76   c76.771,0,139.229-62.461,139.229-139.234V99.997H240.232c-76.773,0-139.233,62.461-139.233,139.235L100.998,599.989   L100.998,599.989z"/>
</g>
</svg>
<svg version="1.1" id="Ebene_1" x="200" y="200" width="448" height="448" viewBox="0 0 699.988 699.986" enable-background="new 0 0 699.988 699.986" xml:space="preserve" shape-rendering="auto">
<path fill="#000000" d="M199.997,291.612V499.99h208.382c50.383,0,91.612-41.229,91.612-91.614V199.997H291.61  C241.227,199.997,199.997,241.228,199.997,291.612z"/>
</svg>
<svg version="1.1" id="Ebene_1" x="1352" y="200" width="448" height="448" viewBox="0 0 699.988 699.986" enable-background="new 0 0 699.988 699.986" xml:space="preserve" shape-rendering="auto">
<g>
	<path fill="#000000" d="M472.469,699.987H1V228.525C1,167.698,24.829,110.37,68.099,67.1C111.368,23.83,168.697,0,229.523,0   h471.465v471.463c0,60.824-23.83,118.153-67.1,161.426C590.618,676.158,533.292,699.987,472.469,699.987z M100.998,599.989H461.76   c76.771,0,139.229-62.461,139.229-139.234V99.997H240.232c-76.773,0-139.233,62.461-139.233,139.235L100.998,599.989   L100.998,599.989z"/>
</g>
</svg>
<svg version="1.1" id="Ebene_1" x="1352" y="200" width="448" height="448" viewBox="0 0 699.988 699.986" enable-background="new 0 0 699.988 699.986" xml:space="preserve" shape-rendering="auto">
<path fill="#000000" d="M199.997,291.612V499.99h208.382c50.383,0,91.612-41.229,91.612-91.614V199.997H291.61  C241.227,199.997,199.997,241.228,199.997,291.612z"/>
</svg>
<svg version="1.1" id="Ebene_1" x="200" y="1352" width="448" height="448" viewBox="0 0 699.988 699.986" enable-background="new 0 0 699.988 699.986" xml:space="preserve" shape-rendering="auto">
<g>
	<path fill="#000000" d="M472.469,699.987H1V228.525C1,167.698,24.829,110.37,68.099,67.1C111.368,23.83,168.697,0,229.523,0   h471.465v471.463c0,60.824-23.83,118.153-67.1,161.426C590.618,676.158,533.292,699.987,472.469,699.987z M100.998,599.989H461.76   c76.771,0,139.229-62.461,139.229-139.234V99.997H240.232c-76.773,0-139.233,62.461-139.233,139.235L100.998,599.989   L100.998,599.989z"/>
</g>
</svg>
<svg version="1.1" id="Ebene_1" x="200" y="1352" width="448" height="448" viewBox="0 0 699.988 699.986" enable-background="new 0 0 699.988 699.986" xml:space="preserve" shape-rendering="auto">
<path fill="#000000" d="M199.997,291.612V499.99h208.382c50.383,0,91.612-41.229,91.612-91.614V199.997H291.61  C241.227,199.997,199.997,241.228,199.997,291.612z"/>
</svg>
</svg>

</svg>
